<svg xmlns="http://www.w3.org/2000/svg" width="13" height="13" viewBox="0 0 13 13">
  <g fill="none" stroke="#AFB1B3" stroke-linecap="round" stroke-linejoin="round" stroke-width="1.3">
    <path d="M9.5 2.5h1.1a1.65 1.65 0 0 1 1.65 1.65v6.1a1.5 1.5 0 0 1-1.5 1.5H6.5"/>
    <path d="M4 1.25h4.25a1.5 1.5 0 0 1 1.5 1.5v7.5a1.5 1.5 0 0 1-1.5 1.5H2.5A1.5 1.5 0 0 1 1 10.25V4l3-2.75Z"/>
    <path d="M1 4h1.4A1.6 1.6 0 0 0 4 2.4V1.25"/>
  </g>
  <path fill="#AFB1B3" d="M2.5 5.2h2.7V4.1l3.4 2.4-3.4 2.4V7.8H2.5V5.2Z"/>
</svg>
